<?xml version="1.0" standalone="no"?>
<!DOCTYPE svg PUBLIC "-//W3C//DTD SVG 20010904//EN"
 "http://www.w3.org/TR/2001/REC-SVG-20010904/DTD/svg10.dtd">
<svg version="1.0" xmlns="http://www.w3.org/2000/svg"
 width="241.000000pt" height="241.000000pt" viewBox="0 0 241.000000 241.000000"
 preserveAspectRatio="xMidYMid meet">
<metadata>
Created by potrace 1.11, written by Peter Selinger 2001-2013
</metadata>
<g transform="translate(0.000000,241.000000) scale(0.100000,-0.100000)"
fill="#000000" stroke="none">
<path d="M1514 2270 c-56 -22 -54 0 -54 -693 l0 -639 -25 16 c-26 17 -117 55
-150 62 -86 19 -123 22 -215 19 -290 -11 -542 -169 -617 -387 -19 -57 -18
-164 3 -218 86 -222 371 -331 693 -265 153 31 332 144 410 259 69 102 65 71
71 706 l5 575 25 -3 c229 -27 450 -170 569 -368 24 -42 42 -62 45 -53 22 67
28 201 12 259 -53 188 -181 306 -521 485 -60 32 -116 62 -122 68 -8 6 -13 34
-13 71 0 52 -4 66 -22 83 -28 25 -66 34 -94 23z"/>
<path d="M326 1353 c-85 -25 -151 -81 -186 -159 -29 -62 -15 -104 35 -104 29
0 40 11 54 50 18 54 68 99 131 117 66 19 80 29 80 58 0 46 -41 59 -114 38z"/>
<path d="M611 1209 c-40 -10 -93 -28 -116 -40 -61 -31 -137 -99 -177 -161 -31
-47 -79 -156 -77 -176 1 -17 34 -42 54 -42 27 0 47 23 64 75 47 138 164 229
332 259 53 9 65 22 59 66 -5 37 -45 43 -139 19z"/>
<path d="M1792 424 c-12 -8 -22 -25 -22 -38 0 -12 -13 -42 -28 -67 -26 -41
-40 -51 -132 -93 -30 -14 -38 -57 -15 -76 22 -18 65 -15 118 10 114 54 199
220 135 264 -12 9 -25 16 -28 16 -3 0 -16 -7 -28 -16z"/>
</g>
</svg>
